<?xml version="1.0" encoding="UTF-8" standalone="no"?>
<svg
   width="466.66pt"
   height="466.664pt"
   version="1.1"
   viewBox="0 0 466.66 466.664"
   id="svg213"
   sodipodi:docname="arrowSlide1.svg"
   inkscape:version="1.1.1 (3bf5ae0d25, 2021-09-20)"
   xmlns:inkscape="http://www.inkscape.org/namespaces/inkscape"
   xmlns:sodipodi="http://sodipodi.sourceforge.net/DTD/sodipodi-0.dtd"
   xmlns="http://www.w3.org/2000/svg"
   xmlns:svg="http://www.w3.org/2000/svg">
  <defs
     id="defs217" />
  <sodipodi:namedview
     id="namedview215"
     pagecolor="#ffffff"
     bordercolor="#666666"
     borderopacity="1.0"
     inkscape:pageshadow="2"
     inkscape:pageopacity="0.0"
     inkscape:pagecheckerboard="0"
     inkscape:document-units="pt"
     showgrid="false"
     inkscape:zoom="0.86464286"
     inkscape:cx="218.00909"
     inkscape:cy="385.70838"
     inkscape:window-width="1848"
     inkscape:window-height="1016"
     inkscape:window-x="72"
     inkscape:window-y="27"
     inkscape:window-maximized="1"
     inkscape:current-layer="svg213" />
  <g
     id="g211"
     transform="translate(-116.67,-46.67)">
    <path
       d="m 350,513.33 c -61.883,0 -121.23,-24.582 -164.99,-68.34 C 141.252,401.232 116.67,341.88 116.67,280 c 0,-61.88 24.582,-121.23 68.34,-164.99 C 228.768,71.252 288.12,46.67 350,46.67 c 61.88,0 121.23,24.582 164.99,68.34 43.758,43.758 68.34,103.11 68.34,164.99 0,40.957 -10.781,81.195 -31.258,116.67 -20.48,35.469 -49.938,64.926 -85.406,85.406 -35.473,20.477 -75.711,31.258 -116.67,31.258 z m 0,-420 c -49.508,0 -96.988,19.668 -131.99,54.676 -35.008,35.004 -54.676,82.484 -54.676,131.99 0,49.506 19.668,96.988 54.676,131.99 35.004,35.008 82.484,54.676 131.99,54.676 49.506,0 96.988,-19.668 131.99,-54.676 35.008,-35.004 54.676,-82.484 54.676,-131.99 0,-32.766 -8.625,-64.957 -25.012,-93.332 C 495.271,158.285 471.709,134.723 443.33,118.34 414.955,101.953 382.764,93.328 349.998,93.328 Z"
       id="path205" />
    <path
       d="m 373.33,396.67 c -6.2148,0.0352 -12.188,-2.4102 -16.594,-6.793 -4.4023,-4.3828 -6.8789,-10.344 -6.875,-16.559 0.008,-6.2148 2.4922,-12.172 6.9023,-16.551 l 77,-76.766 -77,-76.766 c -5.1445,-6.0078 -6.8945,-14.211 -4.6523,-21.797 2.2422,-7.582 8.1758,-13.516 15.758,-15.758 7.5859,-2.2422 15.789,-0.49219 21.797,4.6523 l 93.332,93.332 v 0.004 c 4.3477,4.3711 6.7852,10.285 6.7852,16.449 0,6.1641 -2.4375,12.078 -6.7852,16.449 l -93.332,93.332 c -4.3477,4.3125 -10.215,6.7422 -16.336,6.7695 z"
       id="path207" />
    <path
       d="M 466.67,303.33 H 233.33 c -8.3359,0 -16.039,-4.4453 -20.207,-11.664 -4.168,-7.2187 -4.168,-16.117 0,-23.336 4.168,-7.219 11.871,-11.664 20.207,-11.664 h 233.34 c 8.3359,0 16.039,4.4453 20.207,11.664 4.168,7.2187 4.168,16.117 0,23.336 -4.168,7.219 -11.871,11.664 -20.207,11.664 z"
       id="path209" />
  </g>
</svg>
